HIERARCHY
ROOT ui
{
	 OFFSET 0 0 0
	 CHANNELS 3 XPosition YPosition Z Position
	 EndSite
	 {
	 OFFSET 0 -1 0
	 }
}
ROOT li
{
	 OFFSET 0 0 0
	 CHANNELS 3 XPosition YPosition Z Position
	 EndSite
	 {
	 OFFSET 0 -1 0
	 }
}
ROOT ul
{
	 OFFSET 0 0 0
	 CHANNELS 3 XPosition YPosition Z Position
	 EndSite
	 {
	 OFFSET 0 -1 0
	 }
}
ROOT ll
{
	 OFFSET 0 0 0
	 CHANNELS 3 XPosition YPosition Z Position
	 EndSite
	 {
	 OFFSET 0 -1 0
	 }
}
ROOT tt
{
	 OFFSET 0 0 0
	 CHANNELS 3 XPosition YPosition Z Position
	 EndSite
	 {
	 OFFSET 0 -1 0
	 }
}
ROOT tb
{
	 OFFSET 0 0 0
	 CHANNELS 3 XPosition YPosition Z Position
	 EndSite
	 {
	 OFFSET 0 -1 0
	 }
}
ROOT td
{
	 OFFSET 0 0 0
	 CHANNELS 3 XPosition YPosition Z Position
	 EndSite
	 {
	 OFFSET 0 -1 0
	 }
}
ROOT v
{
	 OFFSET 0 0 0
	 CHANNELS 3 XPosition YPosition Z Position
	 EndSite
	 {
	 OFFSET 0 -1 0
	 }
}
ROOT bn
{
	 OFFSET 0 0 0
	 CHANNELS 3 XPosition YPosition Z Position
	 EndSite
	 {
	 OFFSET 0 -1 0
	 }
}
MOTION
Frames: 32
Frame Time: 0.002
-0.0030578169822692873	-0.001214614987373352	0		0.48221234130859375	-2.3447412109375	0		-0.959119140625	-0.006384612083435059	0		-0.762234375	-2.2628486328125	0		1.6131715087890626	-0.6747781982421875	0		3.25360888671875	-0.19948541259765626	0		4.5150107421875	-0.01705963134765625	0		5.59381396484375	0.10080374145507813	0		-0.18981643676757812	5.9122705078125	0		
0.022915149688720705	-0.00132158100605011	0		0.49009170532226565	-2.352726806640625	0		-1.0321151123046874	-0.0017678589820861817	0		-0.7893170166015625	-2.265564208984375	0		1.6151630859375	-0.6707388305664063	0		3.27254296875	-0.20459326171875	0		4.52991455078125	-0.027155357360839842	0		5.5927890625	0.10080223083496094	0		-0.19174276733398438	5.91336669921875	0		
0.003879694938659668	-0.0021169331073760986	0		0.4930540771484375	-2.3486875	0		-0.9531243896484375	7.502819895744324E-4	0		-0.7374191284179688	-2.27085595703125	0		1.6200804443359376	-0.6767316284179687	0		3.274654541015625	-0.18459161376953126	0		4.5288876953125	-0.027148529052734374	0		5.60985498046875	0.11365943908691406	0		-0.17761306762695311	5.922337890625	0		
0.019930660247802736	0.006827160835266113	0		0.4940250549316406	-2.34564306640625	0		-1.0301285400390625	0.0023785820007324217	0		-0.7484178466796875	-2.2637060546875	0		1.625106689453125	-0.6697340087890625	0		3.26455224609375	-0.19651190185546874	0		4.52194140625	-0.018107650756835937	0		5.60074267578125	0.09969496917724609	0		-0.17853237915039064	5.9224072265625	0		
0.023911205291748047	0.0018495479822158813	0		0.49098361206054686	-2.34857763671875	0		-0.9551210327148437	9.054849743843079E-4	0		-0.7524507446289063	-2.265614013671875	0		1.6180625	-0.6766572265625	0		3.29362255859375	-0.188720458984375	0		4.52689501953125	-0.02715924835205078	0		5.59887646484375	0.11567330169677735	0		-0.19349542236328124	5.91256982421875	0		
-0.008052523612976075	-8.757429718971253E-4	0		0.4879910888671875	-2.35051953125	0		-0.96008544921875	-0.0020001039505004883	0		-0.7653912353515625	-2.260465087890625	0		1.6061964111328124	-0.6645513305664063	0		3.262619873046875	-0.19650193786621092	0		4.52001904296875	-0.0181300048828125	0		5.5888271484375	0.10070574188232422	0		-0.19534230041503906	5.91363134765625	0		
-0.003976396083831787	-0.004867990016937256	0		0.487062744140625	-2.350482666015625	0		-0.9609802856445312	-0.0019426889419555664	0		-0.7563692016601562	-2.267482666015625	0		1.616205078125	-0.6766098022460938	0		3.247700927734375	-0.19940339660644532	0		4.5191259765625	-0.01814793395996094	0		5.59299169921875	0.10863330841064453	0		-0.19515997314453126	5.91267041015625	0		
-7.946630120277405E-4	-0.0018603860139846803	0		0.46224307250976565	-2.34327880859375	0		-1.02782568359375	-0.0024147961139678953	0		-0.8192302856445313	-2.265986572265625	0		1.6214068603515626	-0.6696383056640625	0		3.273763671875	-0.21260528564453124	0		4.5301572265625	-0.03625518798828125	0		5.60113818359375	0.10653046417236328	0		-0.1818491516113281	5.92260791015625	0		
0.028448333740234377	9.521179795265197E-4	0		0.5173990478515625	-2.348660400390625	0		-0.9585764770507812	0.0011196019649505615	0		-0.7489793701171875	-2.2584619140625	0		1.6206207275390625	-0.66962744140625	0		3.280244140625	-0.1766661376953125	0		4.5284970703125	-0.020270156860351562	0		5.60441259765625	0.11346410369873047	0		-0.14751304626464845	5.92838623046875	0		
-0.01221727752685547	0.007267982006072998	0		0.47772271728515625	-2.340357177734375	0		-0.9633084716796875	-0.001815505027770996	0		-0.7667135009765625	-2.258304931640625	0		1.6138525390625	-0.6765756225585937	0		3.251307373046875	-0.2074714813232422	0		4.52586083984375	-0.010276931762695313	0		5.59066748046875	0.10852401733398437	0		-0.19727476501464844	5.91277001953125	0		
0.01508489990234375	-9.142829775810241E-4	0		0.5119732971191406	-2.352594970703125	0		-0.9639473876953125	-0.0017850610017776489	0		-0.7594395751953125	-2.267334228515625	0		1.6132071533203125	-0.6765696411132812	0		3.25281201171875	-0.18749613952636718	0		4.5161650390625	-0.018230926513671874	0		5.58409521484375	0.11753571319580078	0		-0.19885023498535156	5.91380029296875	0		
-0.012479476928710938	-7.00173020362854E-4	0		0.48340380859375	-2.350377685546875	0		-1.040510498046875	-0.0012055109739303588	0		-0.750082275390625	-2.27538330078125	0		1.612636474609375	-0.6765657348632812	0		3.250099609375	-0.2074909210205078	0		4.51560107421875	-0.01824974060058594	0		5.5943994140625	0.09942654418945313	0		-0.19837301635742188	5.91281201171875	0		
0.01403036880493164	-8.8372802734375E-4	0		0.4849114990234375	-2.348382568359375	0		-1.0310074462890626	-0.0022573649883270265	0		-0.8324622802734375	-2.257766357421875	0		1.61819287109375	-0.6696082763671874	0		3.249783935546875	-0.1835022430419922	0		4.50111328125	-0.018166152954101563	0		5.5979619140625	0.10636912536621093	0		-0.1988186492919922	5.9128271484375	0		
-0.001366989016532898	0.0012350159883499146	0		0.48650579833984375	-2.34539111328125	0		-0.9613925170898437	0.001247233033180237	0		-0.7559278564453125	-2.26331396484375	0		1.6177762451171875	-0.6696094360351562	0		3.255136474609375	-0.21555691528320312	0		4.52063525390625	-0.02733050537109375	0		5.59261572265625	0.11537850189208984	0		-0.1991927490234375	5.912837890625	0		
0.022275529861450195	-0.0019350329637527466	0		0.5121206665039062	-2.350578369140625	0		-0.965749267578125	-0.0017128440141677857	0		-0.797274169921875	-2.2630048828125	0		1.6113865966796874	-0.6765690307617187	0		3.268997314453125	-0.18867263793945313	0		4.5143671875	-0.018305435180664062	0		5.59316455078125	0.09934604644775391	0		-0.19949502563476562	5.91284423828125	0		
-0.00994594383239746	0.0033001129627227782	0		0.4818520812988281	-2.35035986328125	0		-0.9660081176757812	-0.0017071900367736817	0		-0.7715219116210937	-2.260190185546875	0		1.6111246337890626	-0.6765748901367188	0		3.24859912109375	-0.2075391845703125	0		4.51410888671875	-0.018323455810546875	0		5.58797216796875	0.10835862731933593	0		-0.20072007751464843	5.913853515625	0		
0.01780128860473633	-0.005907089233398438	0		0.48165814208984375	-2.350364013671875	0		-1.0421922607421874	-0.001150460958480835	0		-0.8277872314453125	-2.269780029296875	0		1.610936279296875	-0.6765828247070312	0		3.2465146484375	-0.19353822326660156	0		4.51985693359375	-0.027383934020996092	0		5.59272021484375	0.09930126953125	0		-0.18581396484375	5.92374169921875	0		
-0.005287056922912598	-0.0017451289892196655	0		0.48557186889648435	-2.345400634765625	0		-1.032318115234375	-0.0022278599739074707	0		-0.7448974609375	-2.268392333984375	0		1.6198896484375	-0.6666583251953125	0		3.26925634765625	-0.21271856689453125	0		4.5057392578125	-0.027296051025390625	0		5.60070458984375	0.11322528839111329	0		-0.18592807006835937	5.92273583984375	0		
0.01971439552307129	0.006062399864196777	0		0.48752899169921876	-2.3434248046875	0		-1.0383377685546875	0.0028071091175079347	0		-0.79288037109375	-2.25805029296875	0		1.61681103515625	-0.669646240234375	0		3.27241943359375	-0.18275201416015624	0		4.5187998046875	-0.011402755737304688	0		5.59571435546875	0.12224996185302735	0		-0.15093896484375	5.92847021484375	0		
-0.00534590482711792	-0.0017658979892730712	0		0.5114772033691406	-2.350611328125	0		-0.9663713989257813	-0.0017323360443115235	0		-0.7599324951171875	-2.265303955078125	0		1.61075830078125	-0.6766119384765625	0		3.24823486328125	-0.207583740234375	0		4.51374609375	-0.0183729248046875	0		5.59166064453125	0.1152738265991211	0		-0.20006341552734375	5.9128173828125	0		
-0.010266645431518555	0.0032572600841522218	0		0.4815260925292969	-2.35040380859375	0		-0.966328857421875	-0.0017478970289230347	0		-0.7718477172851562	-2.260231201171875	0		1.610802490234375	-0.6766213989257812	0		3.242336669921875	-0.19954566955566405	0		4.5137880859375	-0.018376022338867187	0		5.58259326171875	0.10034000396728515	0		-0.20102749633789063	5.91381103515625	0		
-0.014217166900634766	-7.283830046653747E-4	0		0.48161276245117185	-2.350417236328125	0		-0.966250244140625	-0.0017661709785461426	0		-0.7618128051757812	-2.26732177734375	0		1.6108834228515625	-0.676630859375	0		3.248357177734375	-0.20759320068359374	0		4.51386669921875	-0.018376220703125	0		5.58772998046875	0.10830736541748047	0		-0.2009691162109375	5.91379541015625	0		
0.021881978988647462	-0.0020083119869232177	0		0.4557674560546875	-2.345241943359375	0		-1.0381116943359374	0.0027390389442443846	0		-0.746718017578125	-2.270451416015625	0		1.617044677734375	-0.669684814453125	0		3.26563330078125	-0.184720947265625	0		4.5199072265625	-0.027418159484863282	0		5.596822265625	0.1062487564086914	0		-0.1858216094970703	5.92266796875	0		
-0.009950916290283203	0.0032066309452056883	0		0.5138853759765625	-2.34868212890625	0		-0.9619912719726562	0.0011600719690322875	0		-0.756525634765625	-2.263401123046875	0		1.617177734375	-0.6696954956054687	0		3.254537841796875	-0.21564231872558592	0		4.5141025390625	-0.01837188720703125	0		5.596951171875	0.10625778961181641	0		-0.19979396057128906	5.9127509765625	0		
-0.009805598258972169	0.003185625076293945	0		0.48404443359375	-2.348481201171875	0		-0.961845947265625	0.001133823037147522	0		-0.7593823852539062	-2.265404296875	0		1.61127587890625	-0.67666357421875	0		3.2728515625	-0.19277732849121093	0		4.5142470703125	-0.01836907958984375	0		5.5821767578125	0.1173768310546875	0		-0.19968118286132813	5.91272900390625	0		
-0.008709192276000977	-0.004845178127288819	0		0.48018411254882815	-2.35247265625	0		-0.965712890625	-0.0018663020133972167	0		-0.7612286376953125	-2.267417724609375	0		1.6114346923828125	-0.6766776733398437	0		3.242957275390625	-0.1995626220703125	0		4.51440087890625	-0.018367141723632813	0		5.58826513671875	0.10834278869628906	0		-0.20055416870117188	5.91371142578125	0		
-0.013519839286804199	-8.359519839286804E-4	0		0.45438885498046877	-2.348307373046875	0		-1.03558740234375	-0.006389287948608399	0		-0.7610542602539062	-2.267449462890625	0		1.6115989990234374	-0.676694580078125	0		3.24311865234375	-0.19956918334960938	0		4.51456005859375	-0.018366943359375	0		5.59740966796875	0.10628551483154297	0		-0.19943876647949219	5.91267578125	0		
0.02263511848449707	-0.0021288700103759767	0		0.4865887451171875	-2.345568115234375	0		-1.0254317626953124	-0.00749979305267334	0		-0.8228670043945312	-2.2660341796875	0		1.4908572998046874	-0.6638340454101562	0		3.270187744140625	-0.21277444458007813	0		4.5066572265625	-0.02731035614013672	0		5.601623046875	0.11326292419433594	0		-0.18524278259277344	5.92254150390625	0		
-0.0011776360273361207	0.0010112669467926025	0		0.4867702026367188	-2.345599365234375	0		-0.9612031860351562	9.927780032157898E-4	0		-0.7556660766601563	-2.263561767578125	0		1.617987060546875	-0.6697813720703125	0		3.28158642578125	-0.18086651611328125	0		4.51488623046875	-0.01837261962890625	0		5.601787109375	0.11326827239990235	0		-0.17004052734375	5.93339599609375	0		
0.017992591857910155	0.0018353559970855713	0		0.5009581298828125	-2.344735107421875	0		-0.9610396728515626	9.477440118789672E-4	0		-0.808440673828125	-2.257220458984375	0		1.6121048583984374	-0.6767633666992188	0		3.2436142578125	-0.19960325622558595	0		4.51010693359375	-0.010342086791992187	0		5.59789892578125	0.10630155944824218	0		-0.19907321166992187	5.912568359375	0		
-0.012871129989624024	-9.804109930992126E-4	0		0.4830903930664063	-2.3506416015625	0		-0.9649041137695312	-0.0020715219974517824	0		-0.7702887573242188	-2.260543212890625	0		1.612267333984375	-0.6767918701171876	0		3.261765380859375	-0.200749755859375	0		4.51114697265625	-0.026356597900390626	0		5.58313525390625	0.11741239929199218	0		-0.199954345703125	5.913533203125	0		
-0.007755195140838623	-0.005060510158538818	0		0.48325384521484377	-2.350681640625	0		-1.0367281494140625	0.002398910999298096	0		-0.7882125244140625	-2.27246240234375	0		1.6124176025390624	-0.6768231201171875	0		3.249861572265625	-0.20768092346191405	0		4.51534912109375	-0.01839593505859375	0		5.59414892578125	0.09933294677734375	0		-0.19985554504394532	5.91348779296875	0		
